<svg width="20" height="20" viewBox="0 0 20 20" fill="none" xmlns="http://www.w3.org/2000/svg">
<g clip-path="url(#clip0_238_3373)">
<path d="M13.1915 9.16419C12.9992 9.16419 12.8111 9.22123 12.6512 9.32809C12.4913 9.43495 12.3666 9.58683 12.293 9.76453C12.2194 9.94223 12.2002 10.1378 12.2377 10.3264C12.2752 10.5151 12.3678 10.6883 12.5038 10.8244C12.6399 10.9604 12.8131 11.053 13.0018 11.0905C13.1904 11.128 13.386 11.1088 13.5637 11.0352C13.7414 10.9616 13.8933 10.8369 14.0001 10.677C14.107 10.5171 14.164 10.329 14.164 10.1367C14.164 9.87877 14.0615 9.63141 13.8792 9.44903C13.6968 9.26665 13.4494 9.16419 13.1915 9.16419ZM7.77484 10.1367C7.77484 9.94431 7.71778 9.75626 7.61089 9.59631C7.50399 9.43637 7.35206 9.31172 7.17431 9.23814C6.99656 9.16456 6.80098 9.14535 6.61231 9.18294C6.42364 9.22053 6.25036 9.31323 6.11439 9.44932C5.97841 9.58541 5.88586 9.75877 5.84843 9.94748C5.811 10.1362 5.83037 10.3317 5.90411 10.5094C5.97784 10.6871 6.10262 10.8389 6.26266 10.9457C6.42269 11.0525 6.6108 11.1094 6.80317 11.1092C7.06095 11.109 7.3081 11.0064 7.4903 10.8241C7.6725 10.6417 7.77484 10.3945 7.77484 10.1367ZM12.0773 12.8367C11.8122 13.1219 11.4911 13.3494 11.1342 13.5052C10.7773 13.661 10.3922 13.7417 10.0028 13.7422C9.61336 13.7428 9.22799 13.6632 8.87066 13.5084C8.51332 13.3536 8.19166 13.127 7.92567 12.8425C7.78688 12.6705 7.58542 12.5606 7.36561 12.5371C7.1458 12.5135 6.92565 12.5783 6.75359 12.7171C6.58153 12.8559 6.47166 13.0574 6.44814 13.2772C6.42462 13.497 6.48938 13.7171 6.62818 13.8892C7.05021 14.367 7.569 14.7496 8.15014 15.0117C8.73129 15.2737 9.36151 15.4093 9.99901 15.4093C10.6365 15.4093 11.2667 15.2737 11.8479 15.0117C12.429 14.7496 12.9478 14.367 13.3698 13.8892C13.5031 13.7173 13.5639 13.5001 13.5392 13.284C13.5146 13.0678 13.4063 12.8699 13.2377 12.7325C13.0691 12.5951 12.8534 12.5291 12.6367 12.5485C12.4201 12.568 12.2196 12.6714 12.0782 12.8367H12.0773ZM9.99984 0.419189C8.10444 0.419189 6.2516 0.981242 4.67563 2.03427C3.09966 3.0873 1.87134 4.58401 1.146 6.33514C0.420656 8.08627 0.230874 10.0132 0.600649 11.8721C0.970424 13.7311 1.88315 15.4387 3.2234 16.779C4.56366 18.1192 6.27124 19.0319 8.13023 19.4017C9.98921 19.7715 11.9161 19.5817 13.6672 18.8564C15.4184 18.131 16.9151 16.9027 17.9681 15.3267C19.0211 13.7508 19.5832 11.8979 19.5832 10.0025C19.5803 7.46175 18.5697 5.02585 16.7731 3.22925C14.9765 1.43265 12.5406 0.422057 9.99984 0.419189ZM9.99984 17.9192C8.43407 17.9192 6.90347 17.4549 5.60158 16.585C4.29969 15.7151 3.28499 14.4787 2.6858 13.0321C2.0866 11.5855 1.92983 9.99374 2.23529 8.45806C2.54076 6.92237 3.29475 5.51176 4.40191 4.40459C5.50908 3.29743 6.91969 2.54344 8.45538 2.23797C9.99106 1.93251 11.5828 2.08928 13.0294 2.68848C14.476 3.28767 15.7124 4.30237 16.5823 5.60426C17.4522 6.90615 17.9165 8.43675 17.9165 10.0025C17.9143 12.1015 17.0795 14.1138 15.5953 15.598C14.1111 17.0822 12.0988 17.917 9.99984 17.9192Z" fill="#737373"/>
</g>
<defs>
<clipPath id="clip0_238_3373">
<rect width="20" height="20" fill="white"/>
</clipPath>
</defs>
</svg>
